<svg xmlns="http://www.w3.org/2000/svg" width="259" height="280" fill="none" viewBox="0 0 259 280"><path fill="#002664" fill-rule="evenodd" d="M24.2 270.2h-5V266h11.1v13.8h-4.2v-2.5l-.9.8q-1 .9-2.4 1.4-1.5.6-3.5.6-3.6 0-6.1-1.6-2.7-1.6-4-4.5-1.5-3-1.4-6.9 0-4 1.4-7a11 11 0 0 1 10.3-6.1q2.4 0 4.2.7 2 .8 3.3 2a10 10 0 0 1 2.2 2.9 8 8 0 0 1 .8 3.3v.4h-6v-.3a5 5 0 0 0-.9-2 5 5 0 0 0-1.5-1.4q-.9-.6-2.2-.6-1.5 0-2.7.8t-2 2.5-.7 4.7q0 2.4.5 3.9t1.3 2.4 1.7 1.2l2.1.4q1 0 1.8-.3l1.4-.9q.6-.5.9-1.2l.4-1.2zM45.1 254q3.5 0 6.2 1.6 2.6 1.6 4 4.5 1.5 3 1.5 7t-1.4 6.9q-1.5 3-4.1 4.5-2.6 1.6-6.2 1.6a12 12 0 0 1-6.3-1.6q-2.6-1.5-4-4.5-1.5-3-1.5-6.9t1.5-7A11 11 0 0 1 45 254m0 21.2q1.6 0 2.9-.8t1.9-2.5q.7-1.8.7-4.7t-.7-4.9q-.7-1.7-2-2.6a5 5 0 0 0-2.8-.8q-1.6 0-2.9.8-1.2 1-1.9 2.6-.7 2-.7 4.9t.7 4.7a5 5 0 0 0 1.9 2.5q1.2.8 2.9.8m23.7-3-6.1-17.8H57l8.6 25.3H72l8.8-25.3H75zm30.4-2.8H88.9v5.2h12v5H83.1v-25.2h17.6v5H89v5.1h10.3zm22.4-1.5a7 7 0 0 0 1.7-2.3q.7-1.5.7-3.5 0-2.2-1-4-1-1.6-2.9-2.7-2-1-5-1h-10.7v25.3h5.8v-9.4h4.2l4 9.4h6l-4.6-10.5q1-.5 1.8-1.3m-3.5-5.6q0 1.4-1 2.4a4 4 0 0 1-2.9 1h-4V259h4.4q1.5 0 2.6.9a3 3 0 0 1 1 2.4m15-7.9 10.6 15.3v-15.3h5.8v25.3h-5l-11-15.9v15.9h-5.8v-25.3zm34 16.5-5.3-16.5H154v25.3h5.8v-16.3l5 16.3h4.6l5.1-16.4v16.4h5.9v-25.3h-8zm33.8-1.5h-10.3v5.2h12v5H185v-25.2h17.6v5h-11.8v5.1H201zm21.5.3-10.6-15.3h-5.5v25.3h5.8v-15.9l11 15.9h5v-25.3h-5.7zm15.5-10h-7.3v-5.3H251v5.2h-7.3v20H238zm-91.3-50.4a21 21 0 0 0-6.6-6.4q-4.5-3-11.9-4.3l-13.6-2.8q-6.3-1.4-8.5-3.5a7 7 0 0 1-2.2-5.3q0-2 1-3.7a9 9 0 0 1 2.6-3q1.8-1.2 4.4-1.9 2.5-.7 5.7-.7 4.1 0 7.3 1 3.2 1.2 5.2 3.6t2.5 6.4v.4h17v-.4q-.2-7-3.9-12.5a26 26 0 0 0-10.9-8.9 42 42 0 0 0-17.5-3.2q-8.7 0-15.8 3t-11.2 8.6a21 21 0 0 0-4.1 13.2q.2 9.3 5.6 15 5.4 5.4 14.5 7.2l13.8 2.8q3.9.8 6.9 2t4.6 3a7 7 0 0 1 1.7 4.7q0 3.2-2 5.3a13 13 0 0 1-5.7 3.2 28 28 0 0 1-15.7-.2q-3.3-1.3-5.6-3.7a13 13 0 0 1-3-6l-.2-.2H83.8v.4q.8 6 3.8 10.7 3.1 4.5 7.9 7.5T106 245a46 46 0 0 0 11.7 1.5q9.8 0 17-3 7.4-3 11.5-8.3 4-5.2 4.1-11.8 0-3.1-.7-6.8-.6-3.8-2.9-7.4M25.9 191.8 63 245h15v-79.7H61v51.2l-35.3-51-.2-.2H9.2V245h16.7zm196.7 24.5 14.4-51h16.4l-23.6 79.8h-13.3l-14.6-50.5-14.6 50.5H174l-23.5-79.7H167l14.4 51 14.4-51H208z" clip-rule="evenodd"/><path fill="#d7153a" d="M122.3 145.6c-19.8-2.5-39 3.9-72.7-5.3-3.4-1-4.7 2.7-2.9 5.7 9.1 14.8 55 3.2 75.7 1.1.9 0 .8-1.4-.1-1.5M59.9 119q-10.4-15-16.8-33.7A215 215 0 0 0 2.9 102a5 5 0 0 0-2.9 4.7 5 5 0 0 0 2.7 4.8 181 181 0 0 0 76.9 27q-11.1-6.8-19.7-19.4M23 85.5a202 202 0 0 1 18-6.2q-3.3-10.4-5.3-21.7A234 234 0 0 0 14.6 56h-.2a5 5 0 0 0-4.7 2.6 5 5 0 0 0 0 5.5Q16 75.6 23 85.5m64.9 50q6.2 2.8 12.4 3.1A64 64 0 0 1 78 104a180 180 0 0 1-5.8-65.2q-11.9-7.5-25.5-13.9a5 5 0 0 0-5.4.5 5 5 0 0 0-2.4 4.8c2.1 34.2 11 63 26.2 85.3a56 56 0 0 0 22.8 20"/><path fill="#d7153a" d="M125.7 95.3A77 77 0 0 0 118 81a151 151 0 0 0-39.5-38.2c-.2 2.6-2.6 31.3 5.9 59.3 6.4 21.3 17.3 30 23.3 33.3a23 23 0 0 0 18 2.6c-6.5-9-5.7-27.3 0-42.8m-18.2-71.7A253 253 0 0 0 92.2 6.7 5 5 0 0 0 87 5.3q-3.1 1-3.8 4.1c-1 5.2-3 15.7-4 26.1q10.5 7 19.4 14.6 3.4-13.1 9-26.5M129 87.2A125 125 0 0 1 154.3 55 224 224 0 0 0 134 2.9Q132.4 0 129 0c-3.3-.1-3.8 1-4.8 2.9a225 225 0 0 0-20.3 52c8.3 7.8 19.2 20.3 25.1 32.3m50.1-51.7c-.9-10.4-3-21-4-26q-.7-3.1-3.7-4.2l-1.6-.2q-2.1 0-3.8 1.6-8.2 8.4-15.3 16.9a215 215 0 0 1 9 26.5q9-7.6 19.4-14.6m-25.7 98.2a53 53 0 0 0 18.2-25 165 165 0 0 0 8.1-65.8c-15.3 10.2-39.7 31.5-48 54.4-3.9 10.7-5.7 25.3-2.7 33.5q2 5.3 6.4 7.2c4.4 1.9 11.3.4 18-4.3"/><path fill="#d7153a" d="M180.2 104a64 64 0 0 1-22.2 34.6q6-.3 12.3-3a56 56 0 0 0 22.8-20.1q23-33.7 26.2-85.3a5 5 0 0 0-2.4-4.8 5 5 0 0 0-5.4-.5q-13.7 6.5-25.4 13.9 2.9 35.4-5.9 65.2m55-18.5q7.2-10 13.5-21.4 1.5-2.8-.1-5.5a5 5 0 0 0-4.9-2.6 235 235 0 0 0-21.2 1.6 188 188 0 0 1-5.2 21.7 204 204 0 0 1 18 6.2m20.1 16.5Q235 91.2 215.3 85.4a144 144 0 0 1-16.9 33.7 66 66 0 0 1-19.7 19.3 181 181 0 0 0 77-27q2.6-1.6 2.6-4.7-.1-3.2-2.9-4.7m-46.7 38.3c-33.7 9.2-53 2.8-72.7 5.3-.9 0-1 1.4 0 1.5 20.7 2.1 66.5 13.7 75.6-1 1.9-3.1.6-6.7-2.9-5.8"/></svg>