<svg xmlns="http://www.w3.org/2000/svg" width="512" height="512" viewBox="0 0 512 512"><path fill="#fefefe" d="M138 233q-1-22 6-42a119 119 0 0159-68q20-10 44-12l16 1q11 0 22 3a111 111 0 0164 57q12 26 13 57l-2 16c0 8 1 8-1 16 0 3-2 19-4 21-1 2-3 9-5 10l-3 5q-22 39-66 53l-17 1q-8 2-17 1c-15-1-34-7-47-15a119 119 0 01-56-72l-4-16v-8M312 30q-3 5-7 3l-3 2-10-2c1-5 2-6 6-11-3 1-11 6-13 5l2-3-12 6-2-2-2 4c-2 2-7-3-9-4l-3 1h-1l-9 3-1-1-6 2q-8 3-17 1l-1-1 1-2-9 6q-13 4-26 3h-6l-4 2h-3q-8 1-15-1l-21-4-5-2-1 1-12-3-13 3H80L64 39 39 37 21 36q-8 0-14 6L6 47q3 6 10 11l10 5 13 7 14 5 10 6 12 8 8 6 6 9 4 2q-1 4 5 5l-4 3 3 2-3 6 4 5-5 4h6l4 4-7 7h3q1 2-1 3l10 7-4 10 9 3v1l-3 2q5 3 0 5 3 2 2 5v2l-1 5 1 3q-1 3-6 3 7 0 13 2l-2 2 3 2v1l-1 4-3 3 5-1c-2 3-3 13-5 18-1 7-16 21-20 28l-5 17c-3 8-9 17-10 26-2 11-3 11-11 18l-7 7q-6 9-6 19l-1 11 4 14q1 13 7 25c6 9 16 4 24 1l14-5c8-4 16-11 26-9q8 1 15 7 11 2 18 9c4 5 5 16 7 22l5 13q4 5 6 11l6 26 10 16 5 6c3 6 9 16 13 20l19 7q11 3 21-4 4-2 4-8l1-3 1-1-6-12-5-16-2-10 1-7c2-5 15-17 20-20h4l6 2h15l7-4c4-3 6-10 12-7q4 3 6 8l4 12 5 9 5 9 7 11q3 7 8 10 5 6 13 8c8 4 21 6 29 3q10-4 15-13 2-2 1-5-4-8-12-12l-11-3-8-3-3-3-5-9-10-17c-2-7-7-38-4-45l3-3q5-1 8 2l3 1 4-19 4-9 1-11c7-7 11 1 16 5l-9-24c-5-9-14-8-9-21h6l-6-6 1-1v-1l2-12h3l-2-2v-1h1c6 5 8 3 14 1l8-1-10-2q-4 0-5-3 4-3 9-2l7 2-6-4-15-9 4 1v-1h1l-5-2v-1l1-1v-1l2-9h9c0-2-5-5-6-6l-2-8 1-1-1-1-1-16 2-2-2-1V202l4-1c-1-1-6-4-4-6h2l4-8q3-4 7-1l1 1v-1q0-4 3-3l-3-1q-3-6-2-10-4-5 1-7l-2-2q1-2 4-1l-1-7h4c-2-3-9-18-9-21 2-3 16-2 21-14l-10-10c-3-3 1-6 4-8q-5-2-3-6 6-2 11-1l7-16q10-9 22-17l21-15q21-14 40-32l5-9c-8-6-21-4-30-2l-39 11-25 3h-9l-10 1h-1l-8 1-17 1h-7l-7 2-1-1-5 2-8 1-15 7-10 1-9 1Z"/><path fill="#fefefe" d="M247 139c21-2 46 4 61 19q15 16 16 39h-36q-2-11-8-17c-13-12-43-13-55 0-7 6-7 20 1 25q10 6 21 7l24 6c28 7 57 14 58 49q2 17-7 31c-13 22-38 29-62 30h-1c-38 0-76-15-77-59h36q2 11 8 18c9 8 24 9 36 8q15 1 26-9c7-7 7-19-1-25q-11-6-25-8-28-6-54-16-21-12-22-37-3-26 16-45 20-15 45-16"/></svg>