<svg class="icon" xmlns="http://www.w3.org/2000/svg" viewBox="0 0 512 512"><path fill="#5865F2" d="M105 0h302c58 0 105 47 105 105v302c0 58-47 105-105 105H105C47 512 0 465 0 407V105C0 47 47 0 105 0"/><path fill="#fff" d="M369 153a270 270 0 0 0-67-20 187 187 0 0 0-9 17 250 250 0 0 0-37-3c-12 0-25 1-37 3l-9-17a272 272 0 0 0-67 20c-42 63-54 125-48 185a271 271 0 0 0 82 41c7-9 13-18 18-28a174 174 0 0 1-28-13l7-6a194 194 0 0 0 164 0l7 6a175 175 0 0 1-28 13 198 198 0 0 0 18 28 270 270 0 0 0 82-41c7-70-11-131-48-185M202 301c-16 0-29-15-29-33s12-32 29-32 30 14 29 32c0 18-13 33-29 33m108 0c-16 0-29-15-29-33s13-32 29-32c17 0 30 14 29 32 0 18-13 33-29 33"/></svg>