<svg class="icon" xmlns="http://www.w3.org/2000/svg" viewBox="0 0 850 850">
							<path d="M52 38h232l9 12 14 20 12 17 11 16 13 18 16 23 11 16 12 17 12 17 2 3 15-1 33-2h16l32 2 28 4 28 6 25 7 5 2 5-1 9-11 11-12 9-11 7-7 7-8 12-14 9-10 9-11 14-15 7-8 9-10 9-11 10-11 9-11 15-16 8-10h69l-2 5-7 7-9 11-11 12-9 11-14 15-7 8-12 14-9 10-9 11-13 14-7 8-12 14-9 10-9 11-14 15-7 8-12 14-2 3 4 1 15 8 22 14 18 13 18 14 10 9 8 7 7 7 5 5 16 16 9 11 8 9 13 18 14 21 15 26 14 29 10 26 7 22 5 19v7l-5-5-12-13-7-8-12-11-17-14-21-14-17-10-27-13-33-11-21-5-20-3 9 10 10 15 8 16 6 16 5 23 1 12v16l-2 18-6 23-8 18-5-5-8-10-9-10-11-9-11-7 13 19 12 17 13 18 13 19 14 20 10 14 14 20 16 23 12 17 14 20 14 20 12 17 16 23 12 17 10 14v1H599l-9-12-16-23-14-20-13-18-10-15-3 3-15 24-16 26-12 19-15 24-3 3 1-32v-19l-2-33-5-35-8-34-12-36-11-26-8-17-10-18-13-21-13-18-11-14h-3l-9 10-9 11-11 12-9 11-7 7-9 11-12 13-9 11-11 12-7 8-10 11-9 11-11 12-9 11-13 14-7 8-9 10-9 11-10 11-9 11-16 17-9 11-10 11-9 11-14 15-9 11-3 1H52l2-4 12-14 10-11 9-11 14-15 9-11 12-13 9-11 11-12 7-8 10-11 9-11 10-11 9-11 15-16 9-11 12-13 9-11 12-13 7-8 10-11 2-4h-34l-17-3-20-6-17-8-11-7-9-7-14-12-9-10-12-17-11-23-5-16-3-15-2-26-16-10-23-12-25-10-18-6-7-2v-2l16-7 18-5 19-3h27l17 2-12-9-18-11-23-12-16-7-1-2 15-3 18-2 28-1 31 2 13 1 4-5h2l2-4h2v-2h2v-2h2l2-4 8-7 13-12 14-11 18-13 2-1-2-5-13-19-13-18-14-20-16-23-12-17-12-17-14-20-11-16-13-18-16-23-14-20-9-13Zm95 52 2 5 11 15 13 18 12 17 13 18 12 17 12 17 13 18 13 18 7 10 19-9 27-11 36-12-4-7-13-18-11-16-12-16-12-17-14-20-13-18-6-9Zm488 448Zm1 1Zm16 113-7 21-8 16-9 14-9 11-6 6-5-12-7-16-10-16-9-11-4-3-10 16 1 5 13 18 12 17 13 18 13 18 11 16h105l-2-5-12-16-13-18-16-23-13-18-13-18-12-17Z" fill="#1c9aef"/>
							<path d="M52 38h232l9 12 14 20 12 17 11 16 13 18 16 23 11 16 12 17 12 17 2 5-37 7-20 5-3-1-14-20-14-20-12-16-12-17-14-20-13-18-5-7v-2H147l13 19 14 19 12 17 13 18 12 17 12 17 13 18 13 18 6 8v3l-22 12-19 12-3-1-11-16-12-17-14-20-12-17-11-16-13-18-16-23-16-23-12-17-12-17-14-20-14-20Z" fill="#fbfbfb"/>
							<path d="m635 539 4 4 11 16 12 17 13 18 13 19 14 20 10 14 14 20 16 23 12 17 14 20 14 20 12 17 16 23 12 17 10 14v1H599l-9-12-16-23-14-20-13-18-10-15 1-6 12-19 14-22 2-3h3l11 16 13 18 12 17 13 18 13 18v2h105l-12-17-13-18-12-17-12-17-13-18-13-18-9-13 2-13 1-7v-32l-5-25-7-19-8-15Z" fill="#fcfcfc"/>
							<path d="M737 38h69l-2 5-7 7-9 11-11 12-9 11-14 15-7 8-12 14-9 10-9 11-13 14-7 8-12 14-9 10-9 11-14 15-7 8-12 14-11 12-7 8-9 10-7 8-9 10-9 11-10 11-9 11-7 7-7 8-9 10-9 11-9 10-5 6-5-5-13-18-14-20 6-7 7-8 12-14 10-11 9-11 13-14 9-11 13-14 9-11 10-11 9-11 11-12 9-11 7-7 7-8 12-14 9-10 9-11 14-15 7-8 9-10 9-11 10-11 9-11 15-16Z" fill="#fcfdfd"/>
							<path d="m367 511 4 2 8 10-1 4-9 10-9 11-11 12-9 11-7 7-9 11-12 13-9 11-11 12-7 8-10 11-9 11-11 12-9 11-13 14-7 8-9 10-9 11-10 11-9 11-16 17-9 11-10 11-9 11-14 15-9 11-3 1H52l2-4 12-14 10-11 9-11 14-15 9-11 12-13 9-11 11-12 7-8 10-11 9-11 10-11 9-11 15-16 9-11 12-13 9-11 12-13 7-8 10-11 4-5 25-6 16-6 17-9 15-11 12-11 8-8 10-14Z" fill="#fcfcfc"/>
						</svg>