<svg xmlns="http://www.w3.org/2000/svg" width="1453" height="1794"><path fill="#fff" d="M1000 138q4-3 9-4 2 4 6 4l18-6 2 3 18-1c14 0 25 1 38-7l4 4c4 1 21-2 25-3 3 0 11-5 15-5l-4 4 1 1 29-3c54-2 102-18 152-34 38-11 103-33 138-6l-1 1c-10 10-10 24-22 35q-57 57-121 103c-11 8-21 20-33 28-10 7-32 30-42 34-10 5-12 11-21 16v1c-17 16-43 27-49 56-3 12-4 22-11 33-7 0-46-7-35 19 1 2 4 1 6 5-2 8-9 10-12 15-9 19 34 32 32 52l-1 1c-6 15-6 12-17 22h-1c-9 8-44 17-45 18v3c-2 13 25 66 23 70l-8 6c-1 9 6 18 2 21l-10-1-1 5q1 5 7 7-6 2-10 6c-2 8 7 11 7 19-5 10 3 19 4 30 0 5 11 5 16 5-14 2-14 3-15 17-4-5-11-14-18-9-12 8-12 24-18 36h-5l-1-1q-2 1-2 4c-1 9 7 13 13 18-20 3-51 12-52 39l10 10 25-9 7 3-27 11c9 10 21 25 27 37-1 5-7 5 0 13 8 0 22 0 28 2v1l-9 1h-20c5 12 4 18 8 29 3 7 17 7 18 20l-2 3c-35 4-68-8-102-9l12 5-4 4h1q8 9 18 14l1 6h2l16 10q-3 2-3 4l4 1c14 14 29 19 45 28l34 24c-13 3-34-10-41 5q6 13 20 12l1 1h1l-8 5c-5 3-9 1-11 6v2l-5 1c-12 0-25-17-43-17l-3-2-1-1c-5-2-1-2-2-5l-14 2c-11 8-12 10-15 23v1l7 6c9 5 54 51 66 61 3 3 16 20 22 25h-4l-21-20c-6-7-29-30-36-35-6-6-19-20-26-22h-3c-4 8 13 22 19 24 7 5 13 15 19 22l-7 7q-12 12-7 28c2 4 3 3 5 6 7 8 6 3 11 15l3-1 8 7c12 12 22 22 19 41l4 1c3 6 14 42 11 47l-7-3c-7-10-18-15-29-7q-7 6-10 14c-1 20 4 27-7 47l-10 17v2c1 6-8 49-11 55h-1c-9-3-21-8-30-5q-7 3-10 11c-11 27 5 129 14 158 1 5 6 13 7 22 11 4 31 55 36 67l11 8 6 1-2 2 1 1 14 1q8 4 17 6c23 7 50 24 60 47 0 7 0 10 2 17v1l-3 8c-4 6-15 22-22 24-1 6-9 8-14 10-6 5-7 5-15 7q-11 3-22 3c-8 1-29-3-34-1-19-4-27-8-44-19-14-9-32-14-38-32-3-2-10-16-12-20l-15-23c-1-6-5-6-8-10l-20-43-11-19-9-24c-2-4 0-5-3-10q0-6-4-12v1q-3-4-2-10c-1-10-9-18-15-25-6-5-18-1-25 0l-12 24c-2 2-22 14-24 14l-33 3 1-2v2-2h4v-2l-2-2c-10-3-40-11-50-10q-7 4-13 10l-1 4c-12 10-18 9-27 15-12 8-41 47-40 60 1 27 11 70 18 96 2 8 20 42 20 43l-2-3c1 6 4 7 7 12l3 9c-22 1-40-1-62-3l-93-8c-2-11-16-35-22-46l-14-19-12-23c-20-24-22-76-27-106l-3-7q-1-8-5-16l-14-32-11-36-2-2-3-16-7-34-2 1-1-11c-2-25-28-38-49-47l-14-6q-13-11-27-20c-7-3-18-4-25-4-16 2-25 10-37 18-4 3-9 1-13 6l1 1c-9 15-54 20-68 32l-4 2-4 2c-9 6-20 3-30 1-7-6-8-8-13-16-17-38-12-71-23-109-2-7-9-24-8-30q6-34 8-68c0-11 13-32 20-39 9-15 22-22 32-35l3-8q-1-3 1-4 6-8 3-20l1 4 1-1 1 5q0-21 4-41l7-18 3-13h2l2-11h1l1 4 3-12v-1l3-5v-2q6-9 6-21c1-15 8-31 10-49l1 8q3-4 2-9c6-6 15-22 21-29 2-11 24-37 33-46 5-5 16-5 17-11l-11-4 1-2 8-1 14 4c5-5 8-4 11-11 2-17 2-14-4-28-11-8-13-15-16-28l2-6h-2l-4 4-12 3c10-9 8-9 6-21l4-5c-3-4-7-2-10-6v-2q3 0 5-4c1-9-30-7-36-7 9-4 25-8 15-21-3-2 12-20-8-20l-12-2c10-2 36 0 18-18v-1c-1-5 15-5-1-20q6-1 8-6c0-12-14-9-21-12-6-8 7-26 6-35-1-6-2-5-6-6-3-3 0-4-3-8q-3-1-6 1c-2 0-4-9-10-13-1-4 6-5 2-11l-7-2c4-6 20-13 15-24q-4-2-9-1 3-4 2-8c-5-4-9 0-14-1-3-5 6-8 7-13s-4-9-6-13c-9-10 3-18 5-28l-7-7 6-7c-1-11-6-5-11-11q-1-5 1-11c-13-4-13-6-18-19-12-13-1-11-2-15-8-28-36-45-53-64h-1c-3-1-17-15-21-18l-29-19c-14-10-25-19-42-24v-87c36 0 73 6 107 4s97 8 128-2l3-5c20-2 26 3 44 10q3-2 4-5c3 0 8 5 11 7 18 0 37 8 53 12q4 1 6-1l1-1 6 4h8l4 6h5c7-5 8 0 18 0q4-2 5-7h1c11 16 14 2 20-4 11 7 17 3 30 2l2 3c7 4 33-10 38-9 22 4 30-21 43-24l-1 6c6 14 40 4 51 0 5-2 14-7 19-8l2 4c9 3 22-3 30-8q13-8 19-22c1 8 0 12 7 15 5 2 3 6 5 8l7 7q8 3 15 1c2-3 5-10 7-11 4 2 3 3 7 3l19-12 15-5q-4 4-3 8c5 5 27-14 38-16-9 15-15 21-17 38l25 1c8 6 6 5 17-4l5 5c9-1 8-11 13-12v14c10 0 15-2 24-3 4-4 2-4 8-4l20 1c23-7 44-25 67-30l8 1h1l18-10c4 3 1 5 8 4l16-8z"/><path fill="#fff" d="M967 1541q-4-2-7-1c-11-4 1-26-5-35h-2l-3-12q0 2-2 3l-8-55c0-20-2-44 2-65 0-2 8 0 7-10 9-7 22 5 28 0 8-6 4-6 15-7 4-7 4-19 9-26l4-11c1 6-8 49-11 55h-1c-9-3-21-8-30-5q-7 3-10 11c-11 27 5 129 14 158m45-399-7-3-9-26q2-2 6-2c2 0 2-7 4-8 4-1 3 0 6-3 0-6-10-16-15-17-16 0-13-15-21-25-4-3-8-2-8-8q1-10 7-18c4-8 8-16 18-16-11 8-12 10-15 23v1l7 6c9 5 54 51 66 61 3 3 16 20 22 25h-4l-21-20c-6-7-29-30-36-35-6-6-19-20-26-22h-3c-4 8 13 22 19 24 7 5 13 15 19 22l-7 7q-12 12-7 28c2 4 3 3 5 6m-221 401c0-4 2-11 1-13l-3-3 1-3 1 3h2c3-8 8-8 11-14l1-6h2l1 4h2q2-4 6-4 12 1 22 6h-12c3 2 13 3 17 4 2 10 2 14 8 22l1 25c5 3 7-1 11 2l-1 1-4 1v2l4 5 3 9c-3 8-8 8 0 16l3-1q3 3 2 6c0 7 8 20 11 26l1 1v-13l7 23c1 3 8 5 11 10v19c-1-6-5-6-8-10l-20-43-11-19-9-24c-2-4 0-5-3-10q0-6-4-12v1q-3-4-2-10c-1-10-9-18-15-25-6-5-18-1-25 0zm183 20c11 4 31 55 36 67l11 8 6 1-2 2 1 1 14 1q8 4 17 6c23 7 50 24 60 47 0 7 0 10 2 17v1l-3 8c-4 6-15 22-22 24q2-5 7-8l3-10c2-7 11-18 10-25-1-5-3-14-8-14-7-1-6-7-10-11-3-4-6-3-11-5-4-9-13-9-21-14-3-3-10 0-15 0l-3-1 11-1h1c-5-7-30-3-34-7l1-5c-5-3-12 4-12-6 0-2-7-3-7-5-2-6-1-13-6-17-4-2-4-18-5-19-7-10-21-23-21-35m79-359 4 1c3 6 14 42 11 47l-7-3c-7-10-18-15-29-7q-7 6-10 14c-1 20 4 27-7 47l-10 17q-1-8 4-16l-1 3c3-11 3-16 11-23-2-13-9-19-3-31q-4-5-4-10l2-2c8-1 7-10 13-13 2-1 9 1 13-2v-3h1l2 4c3 0 16 1 17-3v-1c-6-4-15-1-19-2l15-1q-3-9-3-16M196 897c1 24-7 20-18 37-2 2 2 23-2 24l-2-2c-3 4 0 15-4 22 0-3 2-14 1-20-3 4-2 35-7 40-3 2-4-1-7 6h-4l3-5v-2q6-9 6-21c1-15 8-31 10-49l1 8q3-4 2-9c6-6 15-22 21-29m731 817 11 12c8 9 17 11 27 17 9 5 22 16 33 17 14-6 18-4 33-1l17 1c11 0 11-6 23-3l2 1 7-2c-6 5-7 5-15 7q-11 3-22 3c-8 1-29-3-34-1-19-4-27-8-44-19-14-9-32-14-38-32m83-694c9-7 29 9 39 9 4 0 4-11 9-17q6 13 20 12l1 1h1l-8 5c-5 3-9 1-11 6v2l-5 1c-12 0-25-17-43-17zm-880 76q0-21 4-41l7-18 3-13h2l2-11h1l1 4 3-12c3 18-1 23-8 38l-2 13v-6l-9 21c-1 9 1 24-2 33q-3 6-9 8-1-3 1-4 6-8 3-20l1 4 1-1zM92 330c6 1 9 7 14 9s16-1 20 7v7h-1q-2-13-15-10c3 6 11 6 17 15 3 4 15 24 18 26h1c1-5-3-14-4-19l1-1c3 7 0 8 7 13q-3 3 0 9c4 2 5 1 7 5 1 8-5 13-9 18-12-13-1-11-2-15-8-28-36-45-53-64z"/><path fill="#fff" d="m998 1760-2-3c7-4 14-1 21-2q23-3 44-3l4-1c4 2 3 3 6 6-12-3-12 3-23 3l-17-1c-15-3-19-5-33 1M91 1401l4 2 4-1c1 4-3 3-1 8q8 2 12-5l2 6 26 3-4 2c-9 6-20 3-30 1-7-6-8-8-13-16m41-297-1 10c-1 11-8 2-10 17-19 6-19 12-33 24 9-15 22-22 32-35l3-8q6-2 9-8m133-306q7 5 10 14l-1-4c3 9 2 13 2 22l-8 8q-5 1-10-1c5-5 8-4 11-11 2-17 2-14-4-28m635 854 8 1q-3 3-3 6c2 15 10 20 10 35l-15-23zm311-1350c1-4 9-14 14-17q4-1 7 1c-10 5-12 11-21 16m-87 204q4-15 17-22c-6 15-6 12-17 22M676 174q8 3 15 1l-2 4q-10 6-13-5M176 450q2 7 1 14l-7-7zm654-329 2 1c0 5-2 22-4 26l-3-1q0 7-2 13c-1-7 5-31 7-39m19-83c3 11-3 18-3 25l1 2-2 13h-1c-1-5 3-34 5-40m284 1087 1-4c4 4 21 20 21 23zM380 178c4 5 4 20 4 27-3-6-6-21-4-27m459-89c1 4-2 13-3 16l-2 1v-1l1-2c0-4 0-2-2-6l2-7 1 3 1-1zm162 835 26 5c-7 1-21-1-26-5M336 103c3 1 9 13 11 17-6-2-9-12-11-17"/><path fill="#fff" d="m830 121 3-16q1 10-1 18zm303 1004q-5-4-7-9l2 2h3l3 3zM787 129l-10 11h-1l-1-1q4-6 11-10m-428 12 6 15q-5-7-6-15m635 875 14-2c1 3-3 3 2 5l1 1 3 2 29 22c18 12 28 20 45 34l26 24-2 2-39-31q-34-27-70-51l-11 6c-6 8-6 8-6 18l-7-6v-1c3-13 4-15 15-23m22 287c11-20 6-27 7-47q3-8 10-14c11-8 22-3 29 7-7 0-16-2-21 3-6 6-4 23-4 31-4 6-13 20-18 23zm-13-224 4-1v-2 2-2c4 2 2 1 6 1 7 5 30 28 36 35-9-1-13-3-22-3l-9 9q-5 19 6 34l2 2 1 2-3 1c-5-12-4-7-11-15-2-3-3-2-5-6q-6-16 7-28l7-7c-6-7-12-17-19-22m-2-145c21 9 91 30 103 41q-45-14-90-31l-10-4h-2zm9 831c5-2 26 2 34 1q11 0 22-3l-1 6c-8 8-60 5-69-2v-2q4-2 7 1l3 2q3 0 4-3m-322-221c10-1 40 7 50 10l2 2v2h-4v2-2l-1 2 33-3-12 4q-21 3-39-5l-1-2q-7-5-16-5c-9-1-23 6-25 5q6-7 13-10m332-594c18 7 72 31 86 44l-58-27-27-12-4-1q0-2 3-4"/><path fill="#fff" d="M1013 1022c18 0 31 17 43 17l-1 4c-5 2-7-2-13 1zm-11 57c-6-2-23-16-19-24h3c7 2 20 16 26 22-4 0-2 1-6-1v2-2 2zm-328 475c2 1 16-6 25-5 5 5 7 5 13 8l-1 1-5 1c-4-3-26-1-33-1zm-225 137 12 23h-5c-3-4-12-16-10-22zm596-891 35-11 1 1q-4 3-9 2h-1l-1 1 2 1-20 9zm72 896 2-4h2q5 6 2 16v-6q0 7-4 11c-2-7-2-10-2-17M200 826c13 4 32 5 44 7l-8 1-1 2-36-9zm643 718q0 6 2 10v-1q4 6 4 12l-4-3c0 3 1 12-1 15l-1-1c-2-4-1-26 0-32m218-506v-2c2-5 6-3 11-6 10 5 20-3 31 1-11 1-36 1-42 7m-905-41c0-5-2-22 5-22l1 1q0 12-6 21"/><path fill="#fff" d="M699 1549q10 0 16 5l1 2-2 3h-8l5-1 1-1c-6-3-8-3-13-8m381-683q12 0 22 4l-31-2zm-661 712 3 7c-2 4 0 11-2 17-3-3-1-19-1-24M356 202c-1-8-7-19-10-27v-1c8 13 8 13 11 27zm757 900 10 11c-4 0-10-6-12-9zM985 916l8 3v1c-4 3-6-1-11 0h-1zm-786-89c-5 0-15-3-20-5l21 4zm874 305 5 7q-4 0-7-4l-2-3z"/></svg>