<svg xmlns="http://www.w3.org/2000/svg" version="1.0" viewBox="0 0 375 500"><path image-rendering="optimizeSpeed" d="M209 0c-2.6 8.8-3.9 18-6.8 26-1.3 5.2-1.9 10-3.8 15-1.5 1.9-2.8-2-3.7.5-2.1 1.7-5.1 1.8-7.6 1-2.8-1.7-.4-5.4 1.7-6.6 2-1.5 0-4.7-1.9-2.4-1.6 1.8-4.7 3.6-6.2 1.2-3.4 0-5.9 4.9-9.3 3.3-1.9-1-1.8 3-4.3 2.4-3.8.6-3.9-4-6.4-5.2-2.5-.3-3 3.2-5.4 3.8a12 12 0 0 1-7.4 1.4c-3.2.4-6 2.6-9.3 2.4-3.1.8-6.2-.8-8.7-2-2.7 1.6-4.1 5.2-7.6 5.4-3 .2-5.8 1.3-8.7 1.8-2.9-.3-6.7 1.3-8.7-1.5-1.5-1.5 2-5.1 0-5.5-1 2.8-1.1 6.7-3.7 8.3l-5.6-2c-2.2-2.4-1-6.7-4.1-8.5-2.7-2.3-3.2-6.1-5.1-9Q84 26 81.9 21.7c-2.5.4 1 4 1.5 5.4q4.9 9.7 9.6 20c-.3 3.6-4.7-.4-6.8-.2-3.5 1.1-6.8-.9-10-1.5-2.7-.4-5.2-2.4-8.2-2-3 .5-5.3-2.3-8.1-2-2.7.8-5 2.7-7.8 2.7q-7 .2-14 0c-11 .2-23 0-34-1.3C.7 41.7-.1 46.2.6 48.7c.2 4.4-.2 8.8 0 13-1.5 3.6 2.7 5.6 5.3 6.7 4.2 2.6 8 5.9 12 8.7 5.5 4.4 10 9.7 15 14 .5 6.2 5.2 11 8.4 16 1.5 3.2-.4 6.5-.2 9.8 1 2.6 1.2 6.2 1.1 8.4 3.2 1.5 4.1 5.6 1.2 7.8-1.1 3.4 1.9 5.9 4.6 7.3 3.1 1.9 2 5.7.7 8.3-1.3 3.7 4.6 2.8 4.8 6-1 3-.5 6.2-.5 9.3-.2 1-5.4 1-2 2 3 1 1.5 4.7 2.1 6.9-.3 1.2-4 4-1 3.7 1.5-.6 5.6 0 4.1 1.9-1.2 1.4 3.2 1.9 2.4 4 .9 1.9-2 4-1.7 5.2 2-.6 3.8.2 3.3 2.4 1 3 4 5.6 3.6 9-1 3.7-5.6 3.4-8.5 2.2a93 93 0 0 0-14-2.1c0 1.7 3.5 1.6 5 2 2.7.3 5.8 0 8 2 1.3 2.9-2.8 4-3.6 6.3-3.7 4.8-6.6 10-9.8 15-2.9 6.8-2.2 15-5.9 21a81 81 0 0 0-4.9 16 15 15 0 0 1-2.6 8.7c-3 4.4-7.7 7.6-10 13a29 29 0 0 0-3.5 13l-1.5 11c2.6 7.8 4.7 16 5 24 .7 5.6 2.4 12 7.7 15 4 1.8 8.5.3 12-2.2 5.7-2.6 12-4.1 17-8 3.6-2.4 7.8-5.6 12-4.4 3.7 1.2 6.1 4.6 9.8 5.9 4.5 2.2 10 3.9 12 8.9 2.3 5.3 2.3 11 4.3 17 2 7.4 5.1 15 8 22 2.6 9.9 3.6 20 9 29 3 5.4 6.5 11 8.6 16 1.8 2.9 5.6 2.5 8.5 2.8 10 .8 20 1.4 30 2.6 3-1.1 1-4.6-.1-6.4-4-7.5-6-16-7.4-24-.8-4.7-.7-10 2.2-14 3.9-6 10-10 17-12 4-.8 7.3 2.5 11 2.3q5.6.3 11-2.5c2.7-1.1 5.3-3 6.3-5.8 2.8-3 7 .5 7 4 1.6 5.4 2.6 11 6 16 4.3 7.5 7.6 16 13 22 2.4 3.6 4.7 7.6 8.8 9.5a37 37 0 0 0 17 6.8q5.8.4 12-.6c6.5-1.7 12-6.6 15-13 1.4-3.6-.8-7.4-3-10-4.1-5.5-11-7.4-17-9.4-2.8-.8-6-2-7.1-5-3-8-7.7-15-11-23-1-4-1.1-7.9-2-12a68 68 0 0 1-.6-21c1.9-3.9 6-1 8.8-.4 2.8-.7 3.6-4 3.6-6.4.8-6 1.5-12 5-17 1.4-3.1-.5-7 1.9-9.5 2-1.8 4.7.2 6 2 1.6 3.2 5.3.2 3.8-2.4q-1.4-3.1-2.1-6.4c-1.3-5.6-2.4-12-6.7-16-1.8-2-4.3-4-4.7-6.8-.3-3.1 3.5-5.3 6-3.4 3.3 1.4 5.5 4.4 7.9 6.9 2.7.9.2-2.8-.2-4a18 18 0 0 0-9.5-9.3c-3.4-2-5.9-4.8-8.6-7.5-2.5-1.2-4.9-4.8-1.7-6.8 2.5-2 5.2 0 7.2 1.6 9.7 6.8 19 15 28 22-.5-3.4-4.5-4.4-6-7.2q-7.1-6.8-15-13c3-3 7.8-1.1 11-3.7 2.4-3.3-3.5-3.7-4.2-5.1 1.7 0 5 .8 4.6-2.3-.7-2.6-6-2.2-5.4-5 2.6.3 4.5 2.9 7.2 2.9-.6-2.5-3.6-2.7-5.6-3.7-1.8-1-3.3-2.3-5.3-3q-2.9-1.3-5.5-2.8c4 .1 7.4 2.5 11 3.7 1 .7 5.2 2 4 0-7.2-3.4-15-5.8-22-8.5-1.7.1-5.8-3-2.2-2.8l8.2 2.9c1 1.7 5.8 1.2 2.4-.3-3.7-1.6-7.6-2.7-11-4.5 3 .2 6.2.8 9.3 1 3.2 0 7 1 10 .4 2.5-3.5-2.5-5.7-4.3-7.8-1.8-2.4-.2-6 3-5.3 3 0 6 .6 8.6.4 1.7-2.5-2.7-.8-3.9-1.5q-3.7-.5-7.6-.6c-3-1.5-2-6.2-5-7.8-3-2.1-.8-7 2.6-6.6q4-1.3 8-3.1c1.3-2.3-3.2-1-4-.2-3.7 1.3-7.2 2.9-11 3.9-3.3-1.1-2.7-6 0-7.5 2.8-2 6.4-2.3 9.4-4-3.4-2-1-6 .3-8.2.1-3.5 3.4-5.3 6.4-4.6 1.5-.5 4.8-3.1 4.4-3.1-2.8-.4-5.4-3.1-4.5-6 .1-2.7-1.9-5.6 0-8.1.6-1.4.6-2.8 1.8-3.8-.2-2-1-5.1 2-5 .4-2.2-2-4.2-2.3-6.5-1.2-3.3-2.7-6.6-3.4-10 .7-3.5 5.2-2.8 7.7-4.3 3.2-1.7 7.2-3.4 8-7.4.6-3.4-2.6-5.5-5-7.4-1.6-1.4-3.7-4-2-6.1 2-2 2-4.6 1.7-7.1 1.6-2.2 4.8-.8 6.9-1.3 2.9-2 2.3-6 3.3-9 1.4-4.7 5.5-8 9.2-11q7.5-5.8 15-12c7.6-6.4 16-12 23-19 5.9-5 12-11 17-16 1.6-2.7 4.8-5.1 4.4-8.7-1.8-3.1-5.7-3-8.8-3.4q-7-.1-14 1.3c-7.6 1.9-15 4.7-22 6.8-8.7 2.6-18 4.5-27 4.8-2.4.5-5 1-7-.4-2.5 1-5 1.7-7.6 1-3.2.1-6.3 1.6-9.6 1.2a74 74 0 0 0-13 .7c-2.2.5-3.5-2.6-5.3-.2-2 2-3.5-.1-3.1-2.1-1.1 1.9-2.4 3.7-4.7 4.3-3 .8-6.2.9-9 2.6-4 1.8-7.8 4.5-12 5.2-3-.5-6 1.3-8.7 1.4-2.6-2-.1-5.2.5-7.6 3.2-11 5.3-23 8-34 0-.8-.7-1.5-1.5-1.2z"/></svg>
