<svg xmlns="http://www.w3.org/2000/svg" xml:space="preserve" viewBox="9.01 18.19 75.93 63.62" fill="#fff"><path d="M46.14 18.84a8.47 8.47 0 0 0-9.26 1.84L25.85 31.71h-8.34c-4.69 0-8.5 3.81-8.5 8.5v19.58c0 4.69 3.81 8.5 8.5 8.5h8.34l11.03 11.03a8.46 8.46 0 0 0 6 2.49c1.1 0 2.2-.21 3.26-.65a8.47 8.47 0 0 0 5.25-7.85V26.69a8.47 8.47 0 0 0-5.25-7.85m-1.75 54.47c0 .87-.58 1.24-.93 1.39s-1.02.29-1.63-.32L29.77 62.31a3.5 3.5 0 0 0-2.47-1.03h-9.79c-.83 0-1.5-.67-1.5-1.5V40.21c0-.83.67-1.5 1.5-1.5h9.79c.93 0 1.82-.37 2.47-1.02l12.06-12.06c.62-.62 1.29-.47 1.63-.33.35.14.93.51.93 1.39zm39.52-15.92a3.495 3.495 0 0 1 0 4.95c-.68.68-1.58 1.03-2.47 1.03s-1.79-.34-2.47-1.03l-7.39-7.39-7.39 7.39c-.68.68-1.58 1.03-2.47 1.03s-1.79-.34-2.47-1.03a3.495 3.495 0 0 1 0-4.95L66.62 50l-7.39-7.39a3.495 3.495 0 0 1 0-4.95 3.495 3.495 0 0 1 4.95 0l7.39 7.39 7.39-7.39a3.495 3.495 0 0 1 4.95 0 3.495 3.495 0 0 1 0 4.95L76.52 50z"/></svg>