{
	"asset":{
		"generator":"Khronos glTF Blender I/O v4.0.44",
		"version":"2.0"
	},
	"extensionsUsed":[
		"KHR_lights_punctual",
		"EXT_texture_webp",
		"KHR_materials_specular",
		"KHR_materials_ior"
	],
	"extensionsRequired":[
		"KHR_lights_punctual",
		"EXT_texture_webp"
	],
	"extensions":{
		"KHR_lights_punctual":{
			"lights":[
				{
					"color":[
						0.7440768480300903,
						1,
						0.3419506549835205
					],
					"intensity":147.7992320738605,
					"spot":{
						"innerConeAngle":0.32266776484483994,
						"outerConeAngle":0.3796091377735138
					},
					"type":"spot",
					"name":"Spot"
				},
				{
					"color":[
						1,
						1,
						1
					],
					"intensity":49.8314087964537,
					"spot":{
						"innerConeAngle":0.3337942263919169,
						"outerConeAngle":0.39269909262657166
					},
					"type":"spot",
					"name":"Spot.001"
				}
			]
		}
	},
	"scene":0,
	"scenes":[
		{
			"name":"Scene",
			"nodes":[
				0,
				1,
				2,
				3,
				4,
				5
			]
		}
	],
	"nodes":[
		{
			"extensions":{
				"KHR_lights_punctual":{
					"light":0
				}
			},
			"name":"Spot",
			"rotation":[
				-0.5823546051979065,
				-0.06960228830575943,
				0.20719709992408752,
				0.7829995155334473
			],
			"translation":[
				0.6289119720458984,
				6.30844783782959,
				0.960188090801239
			]
		},
		{
			"extensions":{
				"KHR_lights_punctual":{
					"light":1
				}
			},
			"name":"Spot.001",
			"rotation":[
				0.06815881282091141,
				0.6323193907737732,
				0.6793289184570312,
				0.36611324548721313
			],
			"translation":[
				0.975816547870636,
				3.335339307785034,
				3.8352293968200684
			]
		},
		{
			"mesh":0,
			"name":"Plane",
			"scale":[
				10.801823616027832,
				10.801823616027832,
				10.801823616027832
			],
			"translation":[
				0,
				-1.3668782711029053,
				0
			]
		},
		{
			"mesh":1,
			"name":"Text",
			"rotation":[
				0.6887144446372986,
				0.16022592782974243,
				-0.16022594273090363,
				0.6887145042419434
			],
			"scale":[
				0.5940890312194824,
				0.5940890312194824,
				0.5940890312194824
			],
			"translation":[
				-2.0643386840820312,
				0.7899185419082642,
				3.619009256362915
			]
		},
		{
			"mesh":2,
			"name":"sogbgless",
			"rotation":[
				0.5000000596046448,
				0.4999999403953552,
				-0.4999999403953552,
				0.5000000596046448
			],
			"translation":[
				0,
				0.5271741151809692,
				0
			]
		},
		{
			"mesh":3,
			"name":"Text.001",
			"rotation":[
				0.6958539485931396,
				-0.12564732134342194,
				0.12564733624458313,
				0.6958540081977844
			],
			"scale":[
				0.8215906023979187,
				0.8215906023979187,
				0.8215905427932739
			],
			"translation":[
				1.3775990009307861,
				0.8048667907714844,
				-2.6655306816101074
			]
		}
	],
	"materials":[
		{
			"emissiveFactor":[
				1,
				1,
				1
			],
			"emissiveTexture":{
				"index":0
			},
			"name":"Material.001",
			"pbrMetallicRoughness":{
				"metallicFactor":0.8655462265014648,
				"roughnessFactor":0
			}
		},
		{
			"doubleSided":true,
			"emissiveFactor":[
				1,
				1,
				1
			],
			"emissiveTexture":{
				"index":1
			},
			"name":"Material.002",
			"pbrMetallicRoughness":{
				"metallicFactor":0.8387096524238586
			}
		},
		{
			"extensions":{
				"KHR_materials_specular":{
					"specularColorFactor":[
						2.0,
						2.0,
						2.0
					]
				},
				"KHR_materials_ior":{
					"ior":1.399999976158142
				}
			},
			"name":"sogbgless",
			"pbrMetallicRoughness":{
				"baseColorTexture":{
					"index":2
				},
				"metallicFactor":0,
				"roughnessFactor":0.28967878222465515
			}
		},
		{
			"emissiveFactor":[
				1,
				1,
				1
			],
			"emissiveTexture":{
				"index":3
			},
			"name":"Material.003",
			"pbrMetallicRoughness":{
				"baseColorFactor":[
					0.800000011920929,
					0.800000011920929,
					0.800000011920929,
					1
				],
				"metallicFactor":0.8185483813285828,
				"roughnessFactor":0.5
			}
		}
	],
	"meshes":[
		{
			"name":"Plane",
			"primitives":[
				{
					"attributes":{
						"POSITION":0,
						"NORMAL":1,
						"TEXCOORD_0":2
					},
					"indices":3,
					"material":0
				}
			]
		},
		{
			"name":"Text",
			"primitives":[
				{
					"attributes":{
						"POSITION":4,
						"NORMAL":5,
						"TEXCOORD_0":6
					},
					"indices":7,
					"material":1
				}
			]
		},
		{
			"name":"mesh.001",
			"primitives":[
				{
					"attributes":{
						"POSITION":8,
						"NORMAL":9,
						"TEXCOORD_0":10
					},
					"indices":11,
					"material":2
				}
			]
		},
		{
			"name":"Text.002",
			"primitives":[
				{
					"attributes":{
						"POSITION":12,
						"NORMAL":13,
						"TEXCOORD_0":14
					},
					"indices":15,
					"material":3
				}
			]
		}
	],
	"textures":[
		{
			"extensions":{
				"EXT_texture_webp":{
					"source":0
				}
			},
			"sampler":0
		},
		{
			"extensions":{
				"EXT_texture_webp":{
					"source":1
				}
			},
			"sampler":0
		},
		{
			"extensions":{
				"EXT_texture_webp":{
					"source":2
				}
			},
			"sampler":1
		},
		{
			"extensions":{
				"EXT_texture_webp":{
					"source":3
				}
			},
			"sampler":0
		}
	],
	"images":[
		{
			"mimeType":"image/webp",
			"name":"plane_bake",
			"uri":"../textures/plane_bake.webp"
		},
		{
			"mimeType":"image/webp",
			"name":"text1_bake",
			"uri":"../textures/text1_bake.webp"
		},
		{
			"mimeType":"image/webp",
			"name":"soggy",
			"uri":"../textures/soggy.webp"
		},
		{
			"mimeType":"image/webp",
			"name":"text2_bake",
			"uri":"../textures/text2_bake.webp"
		}
	],
	"accessors":[
		{
			"bufferView":0,
			"componentType":5126,
			"count":4,
			"max":[
				1,
				0,
				1
			],
			"min":[
				-1,
				0,
				-1
			],
			"type":"VEC3"
		},
		{
			"bufferView":1,
			"componentType":5126,
			"count":4,
			"type":"VEC3"
		},
		{
			"bufferView":2,
			"componentType":5126,
			"count":4,
			"type":"VEC2"
		},
		{
			"bufferView":3,
			"componentType":5123,
			"count":6,
			"type":"SCALAR"
		},
		{
			"bufferView":4,
			"componentType":5126,
			"count":6451,
			"max":[
				3.888716697692871,
				0.019999999552965164,
				1.1728616952896118
			],
			"min":[
				0.02335214987397194,
				-0.019999999552965164,
				-0.40340837836265564
			],
			"type":"VEC3"
		},
		{
			"bufferView":5,
			"componentType":5126,
			"count":6451,
			"type":"VEC3"
		},
		{
			"bufferView":6,
			"componentType":5126,
			"count":6451,
			"type":"VEC2"
		},
		{
			"bufferView":7,
			"componentType":5123,
			"count":18948,
			"type":"SCALAR"
		},
		{
			"bufferView":8,
			"componentType":5126,
			"count":5614,
			"max":[
				1.2849445343017578,
				0.1248079314827919,
				1.45445716381073
			],
			"min":[
				-1.4662401676177979,
				0.0007019416661933064,
				-1.7899129390716553
			],
			"type":"VEC3"
		},
		{
			"bufferView":9,
			"componentType":5126,
			"count":5614,
			"type":"VEC3"
		},
		{
			"bufferView":10,
			"componentType":5126,
			"count":5614,
			"type":"VEC2"
		},
		{
			"bufferView":11,
			"componentType":5123,
			"count":33672,
			"type":"SCALAR"
		},
		{
			"bufferView":12,
			"componentType":5126,
			"count":6288,
			"max":[
				7.855000019073486,
				0.05000000074505806,
				2.2300000190734863
			],
			"min":[
				0,
				-0.05000000074505806,
				-0.6820000410079956
			],
			"type":"VEC3"
		},
		{
			"bufferView":13,
			"componentType":5126,
			"count":6288,
			"type":"VEC3"
		},
		{
			"bufferView":14,
			"componentType":5126,
			"count":6288,
			"type":"VEC2"
		},
		{
			"bufferView":15,
			"componentType":5123,
			"count":18516,
			"type":"SCALAR"
		}
	],
	"bufferViews":[
		{
			"buffer":0,
			"byteLength":48,
			"byteOffset":0,
			"target":34962
		},
		{
			"buffer":0,
			"byteLength":48,
			"byteOffset":48,
			"target":34962
		},
		{
			"buffer":0,
			"byteLength":32,
			"byteOffset":96,
			"target":34962
		},
		{
			"buffer":0,
			"byteLength":12,
			"byteOffset":128,
			"target":34963
		},
		{
			"buffer":0,
			"byteLength":77412,
			"byteOffset":140,
			"target":34962
		},
		{
			"buffer":0,
			"byteLength":77412,
			"byteOffset":77552,
			"target":34962
		},
		{
			"buffer":0,
			"byteLength":51608,
			"byteOffset":154964,
			"target":34962
		},
		{
			"buffer":0,
			"byteLength":37896,
			"byteOffset":206572,
			"target":34963
		},
		{
			"buffer":0,
			"byteLength":67368,
			"byteOffset":244468,
			"target":34962
		},
		{
			"buffer":0,
			"byteLength":67368,
			"byteOffset":311836,
			"target":34962
		},
		{
			"buffer":0,
			"byteLength":44912,
			"byteOffset":379204,
			"target":34962
		},
		{
			"buffer":0,
			"byteLength":67344,
			"byteOffset":424116,
			"target":34963
		},
		{
			"buffer":0,
			"byteLength":75456,
			"byteOffset":491460,
			"target":34962
		},
		{
			"buffer":0,
			"byteLength":75456,
			"byteOffset":566916,
			"target":34962
		},
		{
			"buffer":0,
			"byteLength":50304,
			"byteOffset":642372,
			"target":34962
		},
		{
			"buffer":0,
			"byteLength":37032,
			"byteOffset":692676,
			"target":34963
		}
	],
	"samplers":[
		{
			"magFilter":9729,
			"minFilter":9987
		},
		{
			"magFilter":9729,
			"minFilter":9987,
			"wrapS":33071,
			"wrapT":33071
		}
	],
	"buffers":[
		{
			"byteLength":729708,
			"uri":"soggy.bin"
		}
	]
}
