<svg xmlns="http://www.w3.org/2000/svg" xml:space="preserve" viewBox="9.01 17.46 81.05 65.46" fill="#fff"><path d="M42.88 81.81c-2.21 0-4.37-.86-6-2.49L25.85 68.29h-8.34c-4.69 0-8.5-3.81-8.5-8.5V40.21c0-4.69 3.81-8.5 8.5-8.5h8.34l11.03-11.03a8.47 8.47 0 0 1 9.26-1.84 8.47 8.47 0 0 1 5.25 7.85v46.62a8.47 8.47 0 0 1-5.25 7.85c-1.06.44-2.16.65-3.26.65m-25.37-43.1c-.83 0-1.5.67-1.5 1.5v19.58c0 .83.67 1.5 1.5 1.5h9.79c.93 0 1.82.37 2.47 1.03l12.06 12.06c.62.62 1.29.47 1.63.32.35-.14.93-.51.93-1.39V26.69c0-.87-.58-1.24-.93-1.39-.35-.14-1.02-.29-1.63.33L29.77 37.69a3.5 3.5 0 0 1-2.47 1.02zM61.46 65.1a32.58 32.58 0 0 0 0-30.2 3.502 3.502 0 1 0-6.2 3.26A25.2 25.2 0 0 1 58.17 50c0 4.12-1 8.22-2.91 11.84-.9 1.71-.24 3.83 1.47 4.73a3.505 3.505 0 0 0 4.73-1.47m7.37 8.19c5.16-6.73 7.89-14.79 7.89-23.29s-2.73-16.56-7.89-23.29a3.504 3.504 0 0 0-4.91-.65 3.513 3.513 0 0 0-.65 4.91c4.22 5.5 6.45 12.08 6.45 19.03s-2.23 13.53-6.45 19.03a3.496 3.496 0 0 0 .65 4.91c.64.49 1.38.72 2.13.72 1.05 0 2.09-.47 2.78-1.37m7.95 8.62C85.34 73.4 90.06 62.07 90.06 50c0-11.85-4.57-23.03-12.86-31.49a3.504 3.504 0 0 0-4.95-.05 3.504 3.504 0 0 0-.05 4.95C79.2 30.55 83.06 40 83.06 50c0 10.19-3.98 19.76-11.21 26.94a3.504 3.504 0 0 0-.02 4.95c.68.69 1.58 1.03 2.48 1.03s1.79-.34 2.47-1.01"/></svg>